<?xml version="1.0" standalone="no"?>
<!DOCTYPE svg PUBLIC "-//W3C//DTD SVG 20010904//EN"
 "http://www.w3.org/TR/2001/REC-SVG-20010904/DTD/svg10.dtd">
<svg version="1.0" xmlns="http://www.w3.org/2000/svg"
 width="103.000000pt" height="119.000000pt" viewBox="0 0 103.000000 119.000000"
 preserveAspectRatio="xMidYMid meet">

<g transform="translate(0.000000,119.000000) scale(0.100000,-0.100000)"
fill="#000000" stroke="none">
<path d="M190 1033 c-56 -11 -64 -43 -25 -108 40 -68 69 -77 292 -86 216 -9
252 -18 315 -83 57 -59 78 -113 78 -203 l1 -78 34 38 c42 48 62 91 75 158 11
57 -1 153 -25 199 -19 36 -73 84 -122 109 -89 45 -147 53 -378 56 -121 2 -231
1 -245 -2z"/>
<path d="M745 659 c-12 -38 -63 -49 -274 -58 -213 -10 -233 -15 -282 -68 -50
-53 -51 -58 -64 -310 l-5 -103 105 0 105 0 0 145 0 145 84 0 84 0 122 -145
122 -145 113 0 c63 0 116 3 119 8 2 4 -52 72 -121 151 l-125 143 22 46 c13 25
25 67 28 93 8 84 -16 154 -33 98z"/>
</g>
</svg>
